<mxfile host="app.diagrams.net" modified="2022-06-09T09:47:36.466Z" agent="5.0 (Linux; Android 10; DBY-W09) AppleWebKit/537.36 (KHTML, like Gecko) Chrome/101.0.4951.64 Safari/537.36 EdgA/101.0.1210.53" etag="U111l2yqNUXqZ2vj9YXK" version="19.0.3" type="github">
  <diagram id="tcRvLS11nDdPIok26pjZ" name="第 1 页">
    <mxGraphModel dx="564" dy="365" grid="1" gridSize="10" guides="1" tooltips="1" connect="1" arrows="1" fold="1" page="1" pageScale="1" pageWidth="827" pageHeight="1169" math="0" shadow="0">
      <root>
        <mxCell id="0" />
        <mxCell id="1" parent="0" />
      </root>
    </mxGraphModel>
  </diagram>
</mxfile>
